<svg id="Layer_1" data-name="Layer 1" xmlns="http://www.w3.org/2000/svg" viewBox="0 0 280 300"><defs><style>.cls-1{fill:#fee708;}.cls-2{fill:#010101;}</style></defs><title>kakaotalk logo</title><path class="cls-1" d="M217.48,215.38a12.1,12.1,0,0,1-12.1,12.1H74.62a12.1,12.1,0,0,1-12.1-12.1V84.62a12.1,12.1,0,0,1,12.1-12.1H205.38a12.1,12.1,0,0,1,12.1,12.1Z"/><path class="cls-2" d="M140,94.31c-34.77,0-63,22.22-63,49.64,0,17.72,11.79,33.27,29.51,42.05-1,3.33-6.19,21.4-6.4,22.82,0,0-.13,1.07.56,1.47a1.9,1.9,0,0,0,1.51.09c2-.27,23-15,26.6-17.58a78.79,78.79,0,0,0,11.18.78c34.77,0,63-22.22,63-49.63s-28.19-49.64-63-49.64Z"/><path class="cls-1" d="M105.19,161.27a3.55,3.55,0,0,1-3.63-3.46V136.23H95.89a3.56,3.56,0,1,1,0-7.11h18.6a3.56,3.56,0,1,1,0,7.11h-5.67v21.58A3.55,3.55,0,0,1,105.19,161.27Zm31.85,0c-1.51,0-2.67-.62-3-1.61l-1.8-4.71H121.14l-1.79,4.72c-.35,1-1.51,1.6-3,1.6a5.54,5.54,0,0,1-2.3-.5c-1-.47-2-1.74-.87-5.16l8.69-22.87a5.06,5.06,0,0,1,9.68,0l8.69,22.86c1.1,3.44.14,4.71-.86,5.17a5.55,5.55,0,0,1-2.31.5Zm-6.73-12.75-3.63-10.3-3.63,10.3Zm15.74,12.26a3.41,3.41,0,0,1-3.48-3.32V132.75a3.71,3.71,0,0,1,7.42,0v21.34h7.72a3.33,3.33,0,1,1,0,6.65Zm20.18.49a3.64,3.64,0,0,1-3.63-3.63V132.75a3.63,3.63,0,0,1,7.26,0v7.8L180,130.42a2.81,2.81,0,0,1,2-.81,3.7,3.7,0,0,1,3.57,3.38,2.84,2.84,0,0,1-.8,2.21l-8.28,8.28,8.94,11.84a3.63,3.63,0,0,1-.71,5.09,3.67,3.67,0,0,1-2.19.73,3.61,3.61,0,0,1-2.9-1.45l-8.51-11.28-1.26,1.26v7.92a3.65,3.65,0,0,1-3.64,3.64Z"/></svg>